<svg width="1483" height="1179" viewBox="0 0 1483 1179" fill="none" xmlns="http://www.w3.org/2000/svg">
<path d="M0.504238 -0.00146484L0.504186 1178.38M185.722 -0.00146484L185.722 1178.38M370.94 -0.00146484L370.94 1178.38M556.157 -0.00146484L556.157 1178.38M741.375 -0.00146484L741.375 1178.38M926.593 -0.00146484L926.593 1178.38M1111.81 -0.00146484L1111.81 1178.38M1297.03 -0.00146484L1297.03 1178.38M1482.25 -0.00146484L1482.25 1178.38M0.000244141 1145.43H1481.74M0.000244141 960.042L1481.74 960.042M0.000244141 774.653L1481.74 774.653M0.000244141 589.263L1481.74 589.264M0.000244141 403.874L1481.74 403.874M0.000244141 218.485L1481.74 218.485M0.000244141 33.0959L1481.74 33.0959" stroke="url(#paint0_radial_16_202)" stroke-opacity="0.3"/>
<defs>
<radialGradient id="paint0_radial_16_202" cx="0" cy="0" r="1" gradientUnits="userSpaceOnUse" gradientTransform="translate(741.123 589.189) rotate(90) scale(589.19 741.123)">
<stop stop-color="white"/>
<stop offset="1" stop-color="white" stop-opacity="0"/>
</radialGradient>
</defs>
</svg>
